<?xml version="1.0" encoding="UTF-8"?>
<svg xmlns="http://www.w3.org/2000/svg" xmlns:xlink="http://www.w3.org/1999/xlink" viewBox="0 0 480 480" width="480px" height="480px">
<g id="surface2221099">
<path style=" stroke:none;fill-rule:nonzero;fill:rgb(100%,100%,100%);fill-opacity:1;" d="M 265.234375 297.34375 L 314.84375 346.953125 C 307.265625 361.40625 306.484375 375.78125 314.453125 383.75 L 405 474.296875 C 416.40625 485.703125 441.25 479.453125 460.3125 460.3125 C 479.453125 441.171875 485.703125 416.40625 474.296875 405 L 383.828125 314.453125 C 375.78125 306.484375 361.40625 307.265625 346.953125 314.765625 L 297.34375 265.234375 Z M 170 0 C 76.09375 0 0 76.09375 0 170 C 0 263.90625 76.09375 340 170 340 C 263.90625 340 340 263.90625 340 170 C 340 76.09375 263.90625 0 170 0 Z M 170 300 C 98.203125 300 40 241.796875 40 170 C 40 98.203125 98.203125 40 170 40 C 241.796875 40 300 98.203125 300 170 C 300 241.796875 241.796875 300 170 300 Z M 170 300 "/>
</g>
</svg>
